<?xml version="1.0" encoding="UTF-8"?>
<svg id="Layer_1" xmlns="http://www.w3.org/2000/svg" xmlns:xlink="http://www.w3.org/1999/xlink" version="1.1" viewBox="0 0 451.74 79.6">
  <!-- Generator: Adobe Illustrator 29.8.1, SVG Export Plug-In . SVG Version: 2.1.1 Build 2)  -->
  <defs>
    <style>
      .st0 {
        fill: none;
      }

      .st1 {
        fill: #231f20;
      }

      .st2 {
        clip-path: url(#clippath);
      }
    </style>
    <clipPath id="clippath">
      <rect class="st0" x="1.67" y="1.85" width="447.89" height="76.41"/>
    </clipPath>
  </defs>
  <g class="st2">
    <path class="st1" d="M415.63,31.42c3.47-3.47,7.65-5.21,12.54-5.21s9.06,1.74,12.51,5.21c3.46,3.47,5.19,7.65,5.19,12.54s-1.73,9.05-5.19,12.49c-3.46,3.44-7.63,5.16-12.51,5.16s-9.06-1.74-12.54-5.21c-2.56-2.53-4.16-5.46-4.81-8.78v-7.33c.65-3.35,2.25-6.31,4.81-8.87M407.28,64.26h3.53v-7.77c.65.88,1.38,1.74,2.21,2.56,4.18,4.21,9.22,6.31,15.14,6.31s10.96-2.1,15.14-6.29c4.18-4.19,6.27-9.23,6.27-15.12s-2.09-11.01-6.27-15.18c-4.18-4.18-9.22-6.27-15.14-6.27s-10.96,2.09-15.14,6.27c-.83.82-1.56,1.68-2.21,2.56V1.85h-3.53v62.42ZM390.6,56.4c-3.47,3.47-7.65,5.21-12.54,5.21s-9.06-1.72-12.51-5.16c-3.46-3.44-5.19-7.61-5.19-12.49s1.73-9.06,5.19-12.54c3.46-3.47,7.63-5.21,12.51-5.21s9.06,1.74,12.54,5.21c2.59,2.59,4.21,5.61,4.86,9.05v6.93c-.65,3.41-2.27,6.42-4.86,9.01M398.98,25.95h-3.53v5.43c-.68-.91-1.41-1.78-2.21-2.6-4.18-4.18-9.24-6.27-15.18-6.27s-10.92,2.09-15.12,6.27c-4.19,4.18-6.29,9.24-6.29,15.18s2.1,10.92,6.29,15.12c4.19,4.19,9.23,6.29,15.12,6.29s11.01-2.1,15.18-6.31c.79-.82,1.53-1.69,2.21-2.6v7.81h3.53V25.95ZM345,64.26h3.53V1.85h-3.53v62.42ZM327.83,56.4c-3.47,3.47-7.65,5.21-12.54,5.21s-9.06-1.72-12.51-5.16c-3.46-3.44-5.19-7.61-5.19-12.49s1.73-9.06,5.19-12.54c3.46-3.47,7.63-5.21,12.51-5.21s9.06,1.74,12.54,5.21c2.59,2.59,4.21,5.61,4.86,9.05v6.93c-.65,3.41-2.27,6.42-4.86,9.01M336.22,25.95h-3.53v5.43c-.68-.91-1.41-1.78-2.21-2.6-4.18-4.18-9.24-6.27-15.18-6.27s-10.92,2.09-15.12,6.27c-4.19,4.18-6.29,9.24-6.29,15.18s2.1,10.92,6.29,15.12c4.19,4.19,9.23,6.29,15.12,6.29s11.01-2.1,15.18-6.31c.79-.82,1.53-1.69,2.21-2.6v7.81h3.53V25.95ZM283.64,12.4c-.97,0-1.8.34-2.49,1.02-.69.68-1.04,1.49-1.04,2.43,0,1,.35,1.84,1.04,2.52.69.68,1.52,1.02,2.49,1.02s1.76-.34,2.45-1.02c.69-.68,1.04-1.51,1.04-2.52,0-.94-.35-1.75-1.04-2.43-.69-.68-1.51-1.02-2.45-1.02M281.88,64.26h3.49V25.95h-3.49v38.31ZM264.31,56.4c-3.47,3.47-7.65,5.21-12.54,5.21s-9.06-1.72-12.51-5.16c-3.46-3.44-5.19-7.61-5.19-12.49s1.73-9.06,5.19-12.54c3.46-3.47,7.63-5.21,12.51-5.21s9.06,1.74,12.54,5.21c2.59,2.59,4.21,5.61,4.85,9.05v6.93c-.65,3.41-2.27,6.42-4.85,9.01M272.7,1.85h-3.53v29.53c-.68-.91-1.41-1.78-2.21-2.6-4.18-4.18-9.24-6.27-15.18-6.27s-10.93,2.09-15.12,6.27c-4.19,4.18-6.29,9.24-6.29,15.18s2.1,10.92,6.29,15.12c4.19,4.19,9.23,6.29,15.12,6.29s11-2.1,15.18-6.31c.79-.82,1.53-1.69,2.21-2.6v7.81h3.53V1.85ZM225.51,41.97c0-5.09-1.84-9.49-5.52-13.2-4.18-4.18-9.24-6.27-15.18-6.27s-10.93,2.09-15.12,6.27c-4.19,4.18-6.29,9.24-6.29,15.18s2.1,10.92,6.29,15.12c4.19,4.19,9.23,6.29,15.12,6.29s11.01-2.1,15.18-6.31c1.41-1.38,2.34-2.44,2.78-3.18l-3.75-1.32c-.53.65-1.09,1.26-1.68,1.85-3.47,3.47-7.65,5.21-12.54,5.21s-9.06-1.72-12.51-5.16c-3.46-3.44-5.19-7.61-5.19-12.49,0-.71.04-1.37.13-1.99h38.27ZM192.27,31.42c3.47-3.47,7.65-5.21,12.54-5.21s9.06,1.74,12.54,5.21c1.97,1.97,3.37,4.3,4.19,6.97h-33.64c.85-2.56,2.31-4.88,4.37-6.97M134.8,64.26h3.53v-29.88c.18-1.91.94-3.53,2.3-4.86,1.53-1.53,3.37-2.29,5.52-2.29s4,.76,5.56,2.29c1.44,1.41,2.22,3.13,2.34,5.16h-.04v29.57h3.49v-29c0-2.29.77-4.21,2.32-5.74,1.54-1.53,3.41-2.29,5.58-2.29s4,.76,5.56,2.29c1.44,1.41,2.21,3.13,2.3,5.16h-.04v29.57h3.53v-29.57c-.12-2.97-1.22-5.53-3.31-7.68-2.21-2.21-4.88-3.31-8.03-3.31s-5.83,1.1-8.03,3.31c-.62.62-1.16,1.27-1.63,1.94-.44-.71-.96-1.35-1.55-1.94-2.21-2.21-4.88-3.31-8.03-3.31s-5.63,1.06-7.81,3.18v-.93h-3.53v38.31ZM129.77,23.92h-8.61l-10.51,22.29-10.51-22.29h-8.61l14.79,31.74-10.51,22.6h8.61l25.34-54.34ZM66.52,23.92v6.89h7.5v33.46h7.94V30.8h7.5v-6.89h-7.5v-15.67h-7.94v15.67h-7.5ZM55.97,10.85c-1.68,0-3.05.52-4.1,1.57-1.06,1.04-1.59,2.21-1.59,3.51s.53,2.55,1.59,3.6c1.06,1.05,2.43,1.57,4.1,1.57s2.96-.52,4.04-1.57c1.07-1.04,1.61-2.24,1.61-3.6s-.54-2.46-1.61-3.51c-1.08-1.04-2.42-1.57-4.04-1.57M51.95,64.26h7.94V23.92h-7.94v40.35ZM34.91,53.71c-2.97,2.97-6.43,4.46-10.37,4.46s-7.37-1.46-10.28-4.39c-2.91-2.93-4.37-6.54-4.37-10.84s1.46-7.95,4.37-10.88c2.91-2.93,6.34-4.39,10.28-4.39s7.34,1.41,10.2,4.24c.38.41,1.1,1.28,2.16,2.6l7.59-2.82c-1.5-2.03-2.75-3.55-3.75-4.55-4.36-4.35-9.76-6.53-16.2-6.53s-11.79,2.21-16.22,6.62c-4.43,4.41-6.64,9.65-6.64,15.71s2.21,11.31,6.64,15.74c4.43,4.43,9.84,6.64,16.22,6.64s11.9-2.25,16.38-6.75c.88-.91,2.08-2.38,3.58-4.41l-7.59-2.78c-1.06,1.3-1.72,2.07-1.99,2.34"/>
  </g>
</svg>