<?xml version="1.0" encoding="UTF-8"?>
<svg id="Layer_1" xmlns="http://www.w3.org/2000/svg" version="1.1" viewBox="0 0 2474.15 3029.18">
  <!-- Generator: Adobe Illustrator 29.8.1, SVG Export Plug-In . SVG Version: 2.1.1 Build 2)  -->
  <defs>
    <style>
      .st0 {
        fill: #f5f5f5;
      }

      .st1 {
        fill: #1b1b1b;
      }
    </style>
  </defs>
  <path class="st1" d="M1505.47,534.78c-3.4-1.95-4.06-1.25-2.03,2.07,18.05,29.73,40.12,54.53,66.25,74.49,17.03,13.01,37.42,22.34,56.64,32.11.94.47,1.56,1.37,1.64,2.38,5.23,54.45,6.84,107.5-.08,163.28-1.09,8.87-4.88,21.13-4.3,32.15.2,3.91-.82,4.26-3.05,1.06-13.98-19.96-28.79-40.31-44.41-61.09-18.12-24.14-37.81-53.32-59.06-87.5-28.36-45.62-43.24-94.77-44.69-147.46-.78-27.69,1.6-52.66,7.11-74.92,15.82-64.1,49.06-122.5,95.24-169.18,32.3-32.66,67.89-62.62,106.72-89.84,67.85-47.62,133.36-99.14,182.97-163.09,4.06-5.23,6.05-4.53,6.02,2.07-.04,2.73-.31,5.55-.9,8.48-8.63,44.41-16.68,86.95-24.22,127.54-10.43,56.09-14.3,122.58-4.73,181.76,3.91,24.1,7.5,47.23,10.82,69.34,6.72,44.96,4.77,87.93-5.86,128.91-21.68,83.36-81.95,151.02-137.15,214.8-7.07,8.16-12.42,18.2-17.73,27.58-3.01,5.35-4.34,4.96-3.98-1.17,1.13-20.74.43-43.52-2.07-68.36-2.58-25.59-5.31-50.19-8.2-73.75-7.54-61.41-10.62-128.83-1.56-189.77,12.07-81.25,43.63-155.86,94.65-223.83,1.13-1.52.82-1.99-1.01-1.48-.98.27-1.84.74-2.66,1.41-19.92,16.29-38.63,34.3-56.13,53.95-26.21,29.45-42.77,61.17-59.49,95.98-4.49,9.34-8.16,18.95-11.05,28.83-1.49,5.04-3.32,5.2-5.55.43-9.1-19.61-20.94-37.62-29.88-57.19-3.09-6.68-6.13-13.44-9.18-20.23-1.05-2.34-1.64-2.23-1.8.35-.27,5.31-.2,10.55.31,15.66,3.32,34.65,10.31,66.41,20.94,95.35,7.15,19.41,14.06,38.59,14.41,59.38.35,19.65.04,41.17-.9,64.49-.08,1.68-.94,2.34-2.58,2.07-32.62-5.86-61.88-17.19-87.7-33.98-10.9-7.07-20.43-16.56-31.76-23.05h0v-.03Z"/>
  <path class="st1" d="M973.09,226.77c-13.91-48.87,2.81-102.77,46.21-131.02,2.69-1.76,6.29-.16,6.8,3.01,4.61,29.38,11.13,59.41,15.16,88.32,4.65,33.2,10.51,67.42,17.58,102.7.51,2.58-1.68,4.88-4.3,4.45-14.69-2.54-30.31-3.67-42.5-13.05-20-15.35-32.97-33.52-38.95-54.41h0Z"/>
  <path class="st1" d="M1037.97,96.5c26.72,10.23,48.2,25,61.95,49.38,27.54,48.71,18.98,106.52-22.97,142.77-1.52,1.33-3.87.2-3.83-1.8.12-9.65-.66-19.3-2.34-29.02-9.34-53.75-21.25-106.64-35.78-158.63-.47-1.8,1.25-3.36,2.97-2.7h0Z"/>
  <path class="st1" d="M1285.86,240.72c14.41-30.66,35.12-44.92,65.98-52.23,6.41-1.48,8.95.98,7.66,7.42-2.07,10.43-5.55,19.69-7.54,30-7.34,38.36-11.64,70.7-12.85,97.03-.98,21.25-2.34,42.58-4.14,63.95-.16,1.8-1.05,2.34-2.73,1.6-20.27-9.14-35.86-24.18-46.84-45.08-9.26-17.66-11.25-30.9-11.25-50-.04-18.52,3.87-36.09,11.72-52.7h0Z"/>
  <path class="st1" d="M1368.24,383.1c-4.65,2.07-9.02,4.53-13.2,7.34-2.15,1.45-3.12.9-2.97-1.68,1.99-32.89,3.67-66.09,5.04-99.61,1.29-32.58,7.11-64.61,10.94-96.13.24-1.84,2.3-2.81,3.83-1.8,27.77,17.85,43.99,51.05,48.01,83.4,3.16,25.16-1.13,48.55-12.81,70.23-9.88,18.32-22.81,31.05-38.83,38.24h-.01Z"/>
  <path class="st1" d="M727.11,341.3c9.02-5.23,19.18-7.3,30.51-6.17,1.91.2,3.01,2.3,2.03,3.98-19.65,33.95-33.16,70.39-40.62,109.3-.35,1.95-1.02,3.75-1.95,5.43-.86,1.52-2.93,1.84-4.18.59-13.28-13.09-20.39-28.32-21.33-45.7-1.64-30.2,10.2-52.66,35.55-67.42h-.01Z"/>
  <path class="st1" d="M989.49,581.62c1.91.82,4.22,1.29,5.98,2.5,34.61,24.41,65.43,49.22,92.46,74.49,47.69,44.57,86.17,99.38,115.51,164.41,12.7,28.16,24.34,58.12,34.92,89.96,1.09,3.24-.04,4.53-3.36,3.87-7.77-1.52-15.82-2.73-24.18-3.63-48.16-5.23-97.85-27.62-139.22-55.7-70.43-47.85-122.66-132.34-128.28-217.5-3.12-47.77-.04-104.18,9.22-169.14,4.22-29.57,2.15-67.66,3.32-106.88.19-7.54-.31-14.92-1.6-22.23-1.72-9.73.39-10.62,6.33-2.77,3.63,4.8,7.5,9.41,11.52,13.87,32.54,35.82,68.56,65.66,108.01,89.45,44.65,26.99,94.22,51.02,141.91,78.75,25.19,14.65,45.94,28.2,62.27,40.7,52.27,39.96,95.51,90.98,118.52,150.47,15.27,39.41,16.52,87.11-1.25,126.91-16.13,36.17-49.65,67.03-89.96,72.11-6.33.78-13.09,1.99-20.31,3.59-1.21.27-2.46-.35-2.97-1.48-15.62-34.57-26.91-64.1-33.91-88.52-4.88-17.19-1.29-42.34,2.97-60.78,9.41-40.86,23.98-81.09,43.71-120.66,3.91-7.85,2.97-8.48-2.85-1.95-9.96,11.21-20.7,23.44-32.23,36.72-18.32,21.05-34.22,45.98-47.77,74.77-.7,1.44-1.52,1.52-2.46.19-10.55-15.04-21.8-30.66-33.71-46.91-34.61-47.19-57.66-99.69-66.64-157.89-1.17-7.77.66-15.19.27-22.85-.23-4.84-1.02-4.92-2.38-.27-8.59,29.77-13.01,58.59-13.28,86.52-.08,7.85,1.06,15.08,3.4,21.72,1.25,3.48.39,4.14-2.62,1.99-30.9-22.38-64.06-40-99.57-52.85-3.48-1.25-7.27-1.99-11.44-2.27-2.46-.15-2.54.28-.31,1.29h-.02Z"/>
  <path class="st1" d="M781.84,410.06c-10.39,27.73-25.55,39.26-51.13,46.64-2.15.62-3.01-.16-2.58-2.34,8.01-38.79,20.43-76.91,37.27-114.45.74-1.72,2.93-2.3,4.45-1.17,5.12,3.79,5.86,9.02,8.24,14.38,9.1,20.35,10.35,39.34,3.75,56.95h0Z"/>
  <path class="st1" d="M2021.25,492.32c-22.23-6.48-35.12-24.38-39.02-46.56-4.26-24.3,8.44-51.17,26.25-65.82,2.15-1.76,4.18-1.64,6.09.31,1.8,1.8,2.7,4.02,2.66,6.68-.23,24.34-.04,49.49,3.4,73.79,1.48,10.2,2.42,20.16,2.77,29.88.04,1.17-1.06,2.03-2.15,1.72h0Z"/>
  <path class="st1" d="M2054.57,415.76c11.01,27.19,5.08,51.76-17.85,73.67-2.3,2.19-3.67,1.72-4.06-1.45-4.41-34.57-7.5-69.41-9.34-104.45-.08-1.88,1.99-3.05,3.55-2.03,12.54,8.2,21.76,19.61,27.7,34.26h0Z"/>
  <path class="st1" d="M429.49,711.54c-9.61-20.31-9.96-43.75-6.68-66.41,3.94-27.27,16.37-51.37,37.27-72.34,2.31-2.34,6.21-1.91,7.93.86,3.09,4.92,5.43,10.27,7.03,16.02,18.94,67.93,35.31,122.89,62.42,180.39.43.94-.16,1.99-1.17,2.11-49.26,5.9-84.88-14.3-106.8-60.62h0Z"/>
  <path class="st1" d="M480.23,570.72c67.54,17.58,115.16,85.19,93.16,154.49-3.79,11.91-11.37,22.27-16.64,33.71-.82,1.8-3.4,1.68-4.1-.16-2.5-6.76-3.83-13.75-6.56-20.39-18.01-43.28-35.98-88.12-53.94-134.49-4.14-10.7-9.22-20.51-13.83-30.9-.55-1.25.59-2.62,1.92-2.26h-.01Z"/>
  <path class="st1" d="M722.73,625.95c-.19-1.68-.55-3.24-.98-4.69-.35-1.17.55-2.31,1.76-2.23,1.6.12,2.93.78,3.98,2.07,28.09,33.67,61.33,57.54,99.69,71.6,15.35,5.62,33.2,9.26,53.56,10.86,1.44.12,2.69,1.09,3.2,2.46,28.4,77.23,74.38,144.69,142.58,189.96,30.08,19.96,63.98,38.52,98.83,45.86,2.46.51,2.5,1.25.19,2.15-30.08,12.11-60.12,24.61-94.81,28.36-79.45,8.59-164.1-10.9-219.02-69.88-34.14-36.72-56.25-78.91-68.52-128.44-7.42-30-12.07-57.19-13.91-81.6-1.76-23.08-3.95-45.27-6.56-66.48h.01Z"/>
  <path class="st1" d="M1948.12,775.37c-25.78,33.48-43.98,62.15-54.57,85.98-10.43,23.48-20,43.52-28.67,60.12-10.43,20.04-28.55,41.13-54.38,63.36-30.35,26.09-64.65,50.47-102.89,73.09-19.22,11.37-40.74,18.36-59.06,29.57-8.87,5.43-9.96,4.14-3.32-3.87,14.77-17.77,24.45-41.64,33.91-62.89,21.45-48.2,26.09-101.72,43.4-151.21,24.61-70.31,109.96-106.13,177.73-118.52,40.27-7.34,84.41-14.45,132.38-21.33,68.24-9.77,134.41-38.63,170.59-99.18,1.09-1.84,2.66-2.46,4.69-1.91.82.23,1.37,1.05,1.29,1.91-9.38,106.09-43.09,205.23-101.13,297.38-29.18,46.33-64.92,87.62-107.3,123.83-65.59,56.06-140.16,91.68-223.63,106.84-41.6,7.54-85.78,10.86-132.58,9.96-18.28-.35-36.05-4.3-54.06-3.59-1.41.04-2.58-1.13-2.54-2.54v-.98c.04-.94.82-1.64,1.72-1.6,3.98.2,7.23-.12,9.69-.94,82.3-26.91,157.42-70.82,223.48-125.74,22.77-18.94,45.43-38.12,67.93-57.54,38.09-32.85,83.71-65.51,136.84-97.89.98-.59,1.45-1.48,1.37-2.69-.04-.74-.74-1.29-1.48-1.13-29.34,6.68-57.97,16.06-85.9,28.12-13.16,5.66-25.08,12.31-35.74,19.92-4.96,3.56-5.7,2.81-2.23-2.19,4.88-7.07,8.05-14.69,9.49-22.93,7.19-41.37,19.18-81.6,35.98-120.78,1.21-2.85.9-3.04-.98-.62h-.03Z"/>
  <path class="st1" d="M775.7,1955.52c76.52,122.93,212.19,193.32,353.71,210.08,35.12,4.18,68.56,6.84,100.39,8.01,49.1,1.84,100.86-1.68,155.35-10.62,65.62-10.74,133.87-32.03,190.7-66.6,72.23-43.87,128.83-103.24,169.84-178.12,6.45-11.84,10.74-24.45,15.04-37.11,1.37-3.95,4.06-7.23,8.09-9.88,1.21-.78,2.15-1.88,2.77-3.16,2.46-5.2,5.78-9.77,9.92-13.71,26.02-24.8,50.98-50.62,74.92-77.46,19.38-21.68,40.74-50.47,64.14-86.37,49.06-75.35,83.83-165.27,103.99-250.27,11.84-50,22.97-104.84,25.31-156.56,2.07-44.81,1.21-89.06-2.58-132.81-.7-8.09-2.19-15.66-4.45-22.73-1.09-3.4.08-7.11,2.89-9.26,50.27-38.94,93.28-83.94,129.02-135,3.24-4.61,6.17-9.45,8.79-14.49.7-1.41,2.38-2.07,3.87-1.48,1.84.66,3.09,1.99,3.75,3.91,9.65,28.24,20.31,55.94,27.11,85.23,20.82,89.81,30.74,177.15,29.84,262.07-.31,28.32-1.84,54.41-4.57,78.36-13.16,115.43-44.45,224.84-93.87,328.24-28.48,59.57-60.35,112.5-95.62,158.87-104.38,137.15-242.58,249.77-402.42,315.74-92.03,38.01-187.93,62.46-287.66,73.4-12.03,1.33-24.14,2.3-36.33,2.93-34.57,1.8-70.23,1.21-104.53,1.21-174.73-.08-346.99-50.86-498.4-140.59-68.4-40.51-131.6-90.86-189.53-150.98-170.59-177.03-264.06-388.83-280.43-635.39-.78-11.99-1.09-37.62-.94-76.88.12-26.02,1.33-51.56,3.63-76.64,11.25-121.8,42.31-238.79,93.16-351.02,1.13-2.5,4.45-2.97,6.25-.9,18.4,21.37,40.59,38.94,66.6,52.66,18.44,9.73,38.63,18.87,60.62,27.42,1.25.47,1.84,1.95,1.25,3.16-2.58,5.27-4.57,10.62-5.98,16.06-12.38,47.85-21.06,92.62-26.02,134.3-3.32,27.73-5.27,65.94-5.9,114.61-.35,27.15.9,53.79,3.79,79.84,5.86,53.48,15.51,104.02,28.91,151.68,7.46,26.52,17.93,52.58,26.29,78.52.74,2.3.55,4.8-.55,6.95-36.88,72.58-35.23,155.55.51,229.1,52.19,107.38,146.25,185.23,262.46,210.9,3,.67,5.27,2.27,6.83,4.81h0l.04-.03Z"/>
  <path class="st1" d="M1261.33,1418.45c-83.91-32.69-174.45-103.44-141.25-205.98,2.23-6.88,5.27-13.24,9.14-19.06,5.23-7.81,9.57-15.59,15.86-22.77,22.15-25.43,50.9-44.84,86.21-58.32,27.89-10.62,52.81-17.97,74.73-22.07,50.27-9.34,95.59-18.48,135.9-27.46,58.79-13.12,112.85-41.37,162.27-84.73,11.72-10.31,24.96-25.51,39.69-45.62,16.6-22.7,32.23-48.95,46.84-78.75.35-.7.86-.9,1.6-.62l.94.35c.39.19.51.47.39.9-4.18,13.01-7.81,25.98-9.77,39.34-6.52,45.12-17.97,83.63-34.34,115.55-11.72,22.85-29.14,49.53-46.99,68.32-38.59,40.7-83.44,65.43-138.12,84.14-26.48,9.1-52.5,18.2-78.01,27.34-59.61,21.37-126.41,61.68-124.38,134.57.9,32.66,20.82,66.21,44.26,86.99,11.68,10.35,26.21,20,43.59,28.94.66.35.94.86.74,1.56-.23,1.09-.9,1.56-1.99,1.37-29.96-4.96-59.06-12.93-87.3-23.98h0Z"/>
  <path class="st1" d="M701.21,879.78c41.72,18.79,70.27,70.39,70.47,116.91.08,19.1-6.8,36.06-12.62,53.67-.47,1.44-2.5,1.6-3.16.19-30.82-65.35-77.31-127.73-124.22-180.74-.74-.86-.12-2.19,1.02-2.11,15.9,1.09,34.92-.47,50.19,4.81,6.21,2.15,12.34,4.57,18.32,7.26h0Z"/>
  <path class="st1" d="M651.21,1054.9c-26.68-18.4-46.76-44.92-55.9-76.06-3.87-13.05-3.83-27.85-3.12-41.06,1.17-22.58,8.24-42.93,21.25-61.09,2.07-2.85,6.33-2.85,8.32.04,39.45,56.33,76.72,114.34,111.8,174.06,2.77,4.69,5.27,9.53,7.5,14.49.74,1.6-.19,3.44-1.91,3.83-28.83,6.21-63.75,2.5-87.93-14.22h0Z"/>
  <path class="st1" d="M1174.92,1436.62c-55.43-22.19-99.61-60.7-132.58-115.59-50.82-84.53-41.02-197.03,30.78-269.3,60.47-60.94,147.77-89.06,232.03-98.79,34.8-4.02,69.49-7.73,104.06-11.09,57.7-5.66,111.48-21.91,161.37-48.79,5.23-2.85,9.57-7.19,14.49-9.81,8.55-4.53,9.92-2.93,4.06,4.81-34.57,45.35-81.45,77.93-140.62,97.81-45.86,15.39-97.23,23.28-145.27,33.79-73.16,15.98-143.32,45.62-192.07,100.74-44.22,50.04-66.84,125.59-41.84,187.15,27.15,66.84,91.25,111.44,157.23,138.83,6.56,2.73,12.85,6.05,18.83,9.92,4.49,2.89,4.14,3.67-1.06,2.38-25.62-6.44-48.75-13.83-69.41-22.07h0Z"/>
  <path class="st1" d="M697.07,1457.59c.23-27.15.16-56.8-.23-88.98-.94-74.96,15.31-142.81,75.27-189.3,39.14-30.31,89.3-43.32,138.71-38.32,15.74,1.6,32.31,4.77,49.77,9.53,1.25.31,1.88,1.68,1.37,2.85-11.68,27.15-11.72,61.56-8.2,90.9.16,1.45-.47,2.27-1.88,2.5-42.73,7.42-84.61,18.67-125.62,33.71-29.41,10.78-55.98,25.78-79.73,44.96-25,20.16-46.64,55.23-20.78,85.39,23.87,27.85,58.63,43.09,92.31,54.84,40.19,14.02,83.56,24.77,130.04,32.27,54.18,8.71,97.46,14.3,129.92,16.72,31.21,2.3,62.11,4.18,92.73,5.62,18.48.86,36.44-.24,54.57.66,16.95.86,33.79.35,50.82.59,16.6.23,36.33-2.3,54.69-1.6,7.89.31,15.66-1.88,23.71-1.88,88.32.12,178.44-15.66,265.66-36.02,30.24-7.03,60.43-17.15,90.62-30.31,24.69-10.78,44.8-25.16,60.39-43.16,4.45-5.19,4.65-11.91,6.25-18.36.43-1.76,1.68-2.07,3.75-.9,1.05.59,1.68,1.68,1.68,2.85-.12,40.51-.16,80.23-.04,119.1.12,29.65-1.13,55.59-3.71,77.81-5.66,49.06-15.12,93.63-28.44,133.71-17.38,52.42-40.7,103.2-69.96,152.34-14.96,25.08-30.12,46.64-45.47,64.65-59.61,69.84-132.77,117.07-219.49,141.68-92.62,26.29-189.57,29.96-290.78,11.09-123.32-22.97-221.13-85.39-293.44-187.23-5.62-7.93-11.21-15.74-16.72-23.51-.86-1.17-1.99-1.88-3.44-2.07-112.93-16.72-193.55-77.7-241.88-182.89-5.51-11.99-9.65-24.92-12.34-38.71-12.31-62.5,3.91-113.59,48.59-153.28,21.52-19.1,51.21-33.87,89.06-44.38,1.45-.43,2.19-1.37,2.23-2.89h0v.02Z"/>
  <path class="st1" d="M591.05,1216.77c0,17.31-14.06,31.37-31.37,31.37s-31.37-14.06-31.37-31.37,14.06-31.37,31.37-31.37,31.37,14.06,31.37,31.37h0Z"/>
  <path class="st1" d="M1904.82,1290.61c-16.38-4.73-25.76-22.2-20.91-38.97,4.84-16.78,22.07-26.55,38.46-21.83,16.38,4.74,25.76,22.2,20.91,38.97-4.84,16.78-22.07,26.55-38.46,21.83h0Z"/>
  <path class="st1" d="M1700.39,1297.4c-30.27-13.4-61.91-24.38-94.88-32.85-35.9-9.22-75.55-17.77-118.91-25.7-.51-.08-.82-.39-.86-.94l-.2-2.19c-.08-.98.35-1.41,1.29-1.37,33.4,2.66,68.91,7.19,106.52,13.56,66.02,11.17,133.01,36.13,174.02,89.06.66.86.51,1.52-.47,1.95-.62.27-1.21.16-1.72-.31-18.44-16.52-40.04-30.27-64.8-41.21h0Z"/>
  <path class="st1" d="M1382.58,1285.95c-16.52,33.67,7.11,76.06,32.66,98.16,14.61,12.66,30.62,24.38,48.09,35.12.2.12.27.31.16.55l-.43.94c-.47.98-1.21,1.29-2.23.94-21.45-7.54-41.84-16.17-61.17-25.9-18.4-9.22-31.49-21.88-39.3-38.01-16.33-33.71-4.06-70.04,26.68-89.69,6.88-4.38,8.09-3.16,3.59,3.67-2.85,4.42-5.55,9.14-8.05,14.22h0Z"/>
  <path class="st1" d="M1573.28,1386.19c-42.26-35.59-98.05-44.22-154.88-34.61-18.36,3.09-28.2-41.06-28.63-52.46-.35-10.78,4.65-15.12,15.08-13.05,10.08,1.99,20.59,3.48,31.48,4.41,68.24,5.78,127.27,15.47,177.11,29.02,26.72,7.27,51.52,17.15,74.38,29.65,12.34,6.72,22.27,15.74,29.73,27.03,2.5,3.79,2.11,8.79-.98,12.15-7.97,8.63-17.77,15.62-29.38,21.06-37.46,17.58-71.56,26.21-109.38,34.77-5.7,1.29-6.05.39-1.05-2.62,22.23-13.48,13.01-41.48-3.48-55.35h0Z"/>
  <path class="st1" d="M1017.5,1395.99c13.28,4.81,14.18,3.09,2.73-5.16-6.44-4.65-14.45-8.2-23.94-10.7-27.62-7.23-55.19-4.49-82.73,8.28-15.78,7.3-29.34,22.5-15.78,40.19,5.82,7.58,12.85,13.01,21.09,16.33.12.04.19.19.12.31l-.39.94c-.35.86-.98,1.13-1.84.78-16.21-6.13-32.19-11.02-47.93-14.73-22.11-5.16-44.45-13.59-64.81-24.34-9.1-4.81-17.07-11.37-23.94-19.65-15-18.09,36.48-44.92,48.2-49.92,49.38-21.02,101.17-33.71,155.35-38.05,2.54-.19,4.92,1.29,5.9,3.63,22.42,54.84,57.34,93.79,104.77,129.45.66.51,1.09,1.21,1.21,2.07.04.35,0,.66-.16.98-.23.51-.59.62-1.09.35-22.54-11.76-42.31-21.21-59.3-28.28-10.51-4.38-24.45-6.8-41.84-7.31-15.04-.43-26.41,6.25-34.14,20.12-2.03,3.67-1.17,8.28,2.07,10.94l9.41,7.77c4.69,3.87,4.3,4.45-1.17,1.76-12.31-6.09-22.58-13.44-30.9-22.07-12.03-12.46,7.38-25.08,18.12-27.23,22.11-4.38,42.42-3.2,60.98,3.52h0v.02Z"/>
  <path class="st1" d="M1509.18,1415.06c6.84-13.94-3.98-30.78-17.81-36.06-13.36-5.12-26.64-8.79-39.84-11.09-8.59-1.48-16.84-3.44-24.69-5.9-5.59-1.72-5.43-2.66.39-2.77,5.2-.12,10.59.39,16.25,1.52,6.33,1.29,11.6-1.76,17.89-1.88,24.38-.39,57.38,6.17,75.27,24.81,6.21,6.41,12.85,20,5.94,28.01-14.14,16.44-45.59,24.96-66.02,29.53-.35.08-.66,0-.94-.27l-1.05-1.09c-.39-.39-.2-1.06.35-1.13,16.29-2.34,27.7-10.24,34.26-23.67h0Z"/>
  <path class="st1" d="M1941.17,1427.28c0,17.31-14.02,31.33-31.33,31.33s-31.33-14.02-31.33-31.33,14.02-31.33,31.33-31.33,31.33,14.02,31.33,31.33h0Z"/>
  <path class="st0" d="M692.81,1534.78c3.87-1.56,5.9-.27,6.17,3.87,4.84,79.38,20.12,153.95,45.78,223.71.66,1.84.16,2.23-1.52,1.25-11.06-6.45-21.44-13.09-31.25-20-43.67-30.94-81.95-88.48-76.33-144.84,3.52-35.43,27.07-51.76,57.15-63.98h0Z"/>
  <path class="st1" d="M184.97,2617.24c-7.3,19.1-4.45,37.3,8.48,54.53,12.58,16.76,30.35,23.44,53.28,20.04,15.19-2.27,27.97-9.06,38.28-20.35,1.44-1.64,2.97-1.68,4.49-.08l32.89,33.98c1.41,1.45,1.41,3.79-.04,5.24-27.38,27.5-61.29,39.38-101.72,35.62-63.32-5.86-105.82-63.95-96.76-126.25,5.82-39.96,32.7-74.45,70.78-87.54,47.23-16.25,95.94-4.8,130.31,31.8.51.55.43,1.02-.16,1.45-12.11,8.79-23.75,19.65-34.88,32.54-1.72,1.95-4.65,2.19-6.6.47-15.12-13.2-33.56-20.78-53.83-18.36-21.29,2.54-36.13,14.84-44.53,36.91h0Z"/>
  <path class="st1" d="M583.76,2629.47c3.55,61.25-44.54,113.83-107.4,117.43-62.84,3.62-116.67-43.06-120.19-104.31-3.55-61.25,44.54-113.83,107.4-117.43,62.84-3.62,116.67,43.06,120.19,104.31h0Z"/>
  <path class="st1" d="M1590.71,2672.52c19.53,22.62,44.77,26.72,75.66,12.3,6.95-3.28,12.07-8.16,15.31-14.69.78-1.6,2.93-1.95,4.22-.7l35.74,34.45c1.01.98,1.05,2.62.08,3.63-30.66,32.54-68.71,44.96-114.06,37.23-22.34-3.79-42.07-15.16-59.22-34.02-23.71-26.09-32.66-58.09-26.95-93.2,10.7-65.43,76.09-105.12,140.82-88.79,23.16,5.86,42.7,17.54,58.63,35.04,1.13,1.25,1.02,2.38-.31,3.36-13.01,9.8-25.08,20.66-36.21,32.58-1.21,1.25-2.42,1.29-3.67.16-23.24-21.29-48.32-25.66-75.2-13.05-7.62,3.59-14.22,10.47-19.8,20.62-12.11,22.11-11.33,46.21,4.96,65.08h0Z"/>
  <path class="st1" d="M695.01,2614.04l79.57.59c1.37,0,2.42,1.09,2.42,2.46l-.86,46.88c-.04,1.33-1.09,2.38-2.42,2.38h-77.77c-1.33,0-2.38,1.05-2.42,2.38l-.59,71.64c-.04,1.33-1.09,2.38-2.42,2.38l-49.06.43c-1.37,0-2.46-1.09-2.46-2.46l.08-210.66c0-1.33,1.09-2.42,2.42-2.42l150.62-.27c1.37,0,2.46,1.09,2.42,2.46l-.82,46.68c-.04,1.29-1.09,2.34-2.38,2.38l-95.08.9c-1.29.04-2.34,1.05-2.38,2.34l-1.25,29.41c-.08,1.36,1.02,2.5,2.38,2.5h0Z"/>
  <path class="st1" d="M1091.18,2691.07l98.16,1.05c.82,0,1.48.66,1.48,1.48l-.08,47.46c0,.82-.66,1.48-1.48,1.48h-151.25c-.82,0-1.48-.66-1.48-1.48l.23-211.88c0-.82.66-1.49,1.48-1.49l148.52-.2c.86,0,1.52.66,1.48,1.52l-.9,48.63c-.04.82-.66,1.45-1.48,1.45l-95.23.78c-.82,0-1.48.66-1.48,1.48l.23,30.51c0,.82.66,1.48,1.48,1.48l82.15.04c.82,0,1.52.7,1.48,1.52l-.98,41.6c-.04.82-.66,1.45-1.48,1.45h-82.27c-.86,0-1.52.7-1.48,1.56l1.41,30.12c.04.78.7,1.41,1.48,1.41h0v.03Z"/>
  <path class="st1" d="M1299.23,2580.29c-1.37.04-2.03.7-2.07,2.07l-.62,28.4c-.04,1.49,1.17,2.74,2.66,2.74l77.97.04c1.29,0,1.95.66,1.95,1.95l.24,39.45c.04,2.23-1.09,3.32-3.32,3.36l-77.07.47c-1.95.04-2.93,1.01-2.89,2.93l.23,25.9c.04,1.95,1.6,3.52,3.55,3.55l95.86.55c1.05,0,1.92.86,1.92,1.91l.08,46.56c0,1.6-.78,2.38-2.38,2.38l-148.28.12c-2.89,0-4.34-1.45-4.34-4.38l-.51-208.63c0-1.09.86-1.95,1.91-1.95,40.59.08,79.73-.2,117.42-.78,9.73-.12,19.8.16,30.24.9,1.8.12,3.16,1.6,3.12,3.4l-.66,45.82c-.04,1.21-.62,1.8-1.84,1.84l-93.17,1.41h0Z"/>
  <path class="st1" d="M1897.08,2710.02c-1.21-2.7-3.28-4.02-6.21-3.98l-71.84,1.6c-2.7.04-5.08,1.76-5.98,4.3l-8.98,24.84c-1.25,3.44-4.49,5.74-8.16,5.78l-48.59.31c-1.02,0-1.76-.98-1.45-1.95,3.32-10.47,6.68-20.16,10.08-29.1,22.3-57.85,46.17-118.63,71.6-182.3.47-1.21,1.37-1.8,2.66-1.8l50.9-.39c2.23-.04,4.18,1.45,4.77,3.59,2.73,9.45,6.09,19.06,10.04,28.87,17.7,43.87,35.55,87.46,53.55,130.82,7.15,17.3,13.63,34.18,19.42,50.7.35,1.01-.39,2.03-1.45,2.03l-51.68-.94c-2.85-.08-4.88-1.41-6.05-4.02l-12.62-28.36h-.01Z"/>
  <path class="st1" d="M2063.06,2613.57l79.84,1.02c.86,0,1.52.66,1.48,1.52l-.62,48.12c-.04.82-.7,1.48-1.52,1.48l-78.71.86c-.82,0-1.49.66-1.49,1.49l-.59,73.2c0,.86-.66,1.52-1.52,1.52l-51.05-.12c-.86,0-1.52-.66-1.52-1.52l-.04-211.84c0-.86.66-1.52,1.52-1.52l150.82-.7c.86,0,1.52.7,1.52,1.56l-1.41,48.36c-.04.82-.66,1.45-1.49,1.48l-94.45,1.8c-.82.04-1.45.66-1.48,1.49l-.82,30.2c-.04.86.66,1.56,1.52,1.6h.01Z"/>
  <path class="st1" d="M894.19,2668.65l-.55,72.07c0,1.09-.86,1.95-1.95,1.95l-50.23.51c-1.13,0-2.03-.9-2.03-2.03l.62-211.45c0-1.09.9-1.99,1.99-1.99l148.28-.08c1.13,0,2.03.9,1.99,2.03l-.82,47.3c-.04,1.05-.9,1.91-1.95,1.95l-93.4,1.45c-1.09.04-1.95.9-1.99,1.99l-.27,29.49c-.04,1.09.86,1.99,1.95,2.03l78.12.74c1.09.04,1.99.94,1.99,2.03l-.2,48.05c0,1.09-.9,1.99-1.99,1.99l-77.58-.04c-1.09,0-1.99.9-1.99,1.99h0v.02Z"/>
  <path class="st1" d="M2260.67,2691.46l96.29.2c1.6,0,2.89,1.29,2.85,2.89l-.55,45.2c-.04,1.56-1.29,2.81-2.85,2.81l-150.04.2c-1.56,0-2.85-1.29-2.85-2.85l-.12-209.3c0-1.56,1.29-2.85,2.85-2.85l149.38-.2c1.6,0,2.85,1.29,2.85,2.89l-.7,46.05c-.04,1.56-1.29,2.81-2.85,2.81l-93.67.35c-1.56,0-2.81,1.21-2.85,2.74l-.9,28.2c-.04,1.6,1.25,2.93,2.85,2.93l79.69.16c1.56,0,2.81,1.25,2.85,2.81l.39,38.4c.04,1.56-1.25,2.85-2.81,2.89l-79.92,1.02c-1.56.04-2.81,1.29-2.81,2.85l.08,26.95c0,1.6,1.25,2.85,2.85,2.85h-.01Z"/>
  <path class="st0" d="M526.34,2636.19c0,31.25-25.31,56.56-56.56,56.56s-56.56-25.31-56.56-56.56,25.31-56.56,56.56-56.56,56.56,25.31,56.56,56.56h0Z"/>
  <path class="st0" d="M1832.04,2656.42l23.44-60.59c1.21-3.16,2.23-3.09,3.09.16,4.8,18.79,11.84,38.09,21.09,57.81,1.21,2.62-.7,5.62-3.59,5.62l-41.84.16c-2.3,0-3.01-1.05-2.19-3.16h0Z"/>
  <path class="st1" d="M1541.73,2934.9c-22.81-5.35-50.23-9.06-41.52-41.95,1.6-6.05,4.84-10.24,9.65-12.46,22.46-10.35,35.55-7.19,55.78,1.56,6.45,2.81,7.77,7.19,4.06,13.12-.62,1.02-1.09,1.8-1.45,2.34-3.48,5.55-8.2,7.07-14.26,4.61-5.2-2.15-10.04-4.84-14.49-8.08-4.1-3.01-7.77-2.54-10.98,1.48-.62.74-1.09,1.6-1.41,2.5-1.56,4.45-.12,7.5,4.3,9.18,14.3,5.35,33.87,8.95,42.38,22.42,7.42,11.72,2.23,27.3-8.87,33.87-23.71,14.06-43.12,8.55-65.08-3.24-3.24-1.76-3.98-4.26-2.23-7.5l5.94-11.02c2.38-4.41,5.51-5,9.38-1.76,5.66,4.73,11.68,8.4,18.12,10.94,4.96,1.99,9.69,1.09,14.1-2.7,1.05-.9,1.8-1.99,2.23-3.36,1.76-5.35-.16-8.67-5.67-9.96h.02Z"/>
  <path class="st1" d="M857.93,2923.03c-.31,26.68-23.59,48-51.99,47.65-28.39-.35-51.13-22.26-50.81-48.91.31-26.68,23.59-48,51.99-47.65,28.39.35,51.13,22.26,50.81,48.91h0Z"/>
  <path class="st1" d="M1154.07,2923.3l-1.21,44.69c-.04.66-.35,1.01-1.02,1.09l-18.94,1.68c-.82.08-1.52-.59-1.52-1.41l-1.56-91.52c-.04-1.91.9-2.81,2.81-2.77l18.63.47c2.46.04,4.77,1.29,6.13,3.36l23.44,34.69c.82,1.21,2.54,1.25,3.44.12l27.93-36.91c.9-1.21,2.11-1.76,3.59-1.72l16.99.43c1.84.04,2.77,1.02,2.73,2.85l-.94,91.25c0,.86-.43,1.25-1.29,1.21l-20.31-.98c-.66-.04-1.17-.55-1.17-1.21l-1.06-47.11c-.08-3.09-1.06-3.44-2.97-.98-7.03,9.02-14.34,22.3-23.24,29.69-2.93,2.46-5.35,2.03-7.27-1.33-5.86-10.43-12.69-19.34-20.47-26.72-1.76-1.68-2.7-1.33-2.73,1.13h.01Z"/>
  <path class="st1" d="M1764.73,2924.16l-1.72,44.49c-.04,1.09-.62,1.64-1.76,1.64l-18.09.12c-1.17,0-2.11-.98-2.07-2.11.7-29.14.55-59.26-.51-90.35-.08-1.72,1.33-3.16,3.05-3.2l15.62-.2c2.46-.04,4.76,1.25,6.01,3.36,7.62,12.7,16.09,24.65,25.35,35.94,1.09,1.33,3.09,1.25,4.06-.16l25.23-36.49c.9-1.33,2.19-1.99,3.79-1.95l18.98.43c.86,0,1.6.74,1.56,1.6l-1.64,92.15c-.04,1.21-.62,1.64-1.76,1.29-6.29-1.88-12.77-2.27-19.49-1.21-1.05.2-1.6-.27-1.64-1.37l-1.21-46.52c-.04-2.81-.98-3.12-2.81-.98-7.19,8.63-13.48,18.16-18.87,28.63-2.26,4.41-4.84,4.61-7.73.59l-19.61-27.15c-2.97-4.1-4.57-3.63-4.77,1.45h.03Z"/>
  <path class="st1" d="M683.21,2946.89l42.5.62c1.25.04,2.27,1.05,2.27,2.3l-.16,18.67c0,1.25-1.02,2.26-2.27,2.23l-66.41-.74c-1.25-.04-2.23-1.02-2.27-2.27l-1.21-90.04c-.04-1.29.98-2.3,2.27-2.3h19.53c1.25,0,2.23.98,2.27,2.23l1.25,67.07c.04,1.21,1.02,2.19,2.23,2.23h0Z"/>
  <path class="st1" d="M917.74,2943.96l-.74,22.81c-.08,2.77-2.42,4.92-5.16,4.76l-15.23-.86c-2.38-.12-3.56-1.37-3.52-3.75l.51-89.3c.04-1.8.94-2.66,2.73-2.58,14.18.59,29.41.62,45.66.08,17.93-.62,32.66,8.28,37.66,25.47,4.34,15.04-2.66,29.14-16.84,35.43-1.64.74-2.15,2.81-1.02,4.22l21.95,27.07c1.21,1.52.86,2.27-1.06,2.23l-22.34-.27c-4.22-.04-7.38-1.91-9.45-5.59-7.31-12.77-13.91-22.73-30.98-21.91-1.41.04-2.15.78-2.19,2.19h.02Z"/>
  <path class="st1" d="M1043.8,2897.48l-.16,11.6c-.04,1.02.82,1.88,1.84,1.84l39.96-.74c1.02-.04,1.84.78,1.84,1.8l-.16,19.26c0,.94-.78,1.76-1.72,1.76l-40.16,1.17c-.94,0-1.68.74-1.72,1.68l-.55,10.98c-.08,1.05.78,1.91,1.84,1.88l44.92-1.6c1.02-.04,1.84.7,1.88,1.72l.86,18.75c.04,1.01-.78,1.88-1.8,1.88l-70.94.62c-.98,0-1.8-.82-1.8-1.8l-.08-90.9c0-.98.82-1.8,1.8-1.8l71.91-.08c1.02,0,1.8.82,1.8,1.84l-.43,16.37c0,.98-.82,1.76-1.8,1.76l-45.55.27c-.98,0-1.76.78-1.8,1.76h0l.02-.02Z"/>
  <path class="st1" d="M1347.16,2877.59l-.98,90.62c0,.7-.55,1.29-1.25,1.29l-20.9.82c-.74,0-1.37-.59-1.41-1.33l-1.45-92.54c-.04-.74.62-1.37,1.37-1.33l23.32,1.09c.74.04,1.29.62,1.29,1.37h0Z"/>
  <path class="st1" d="M1410.4,2945.68l-.27,22.42c0,1.21-.59,1.72-1.8,1.52-6.76-1.02-13.48-.47-20.12,1.6-1.02.31-2.07-.43-2.15-1.52-1.6-29.88-1.91-60.62-.86-92.19.04-1.68.94-2.46,2.62-2.42,14.57.59,29.38.59,44.45.08,10.04-.35,18.05,1.91,24.02,6.8,19.02,15.55,16.09,45.9-6.25,57.46-10.47,5.39-25,3.4-36.52,3.24-2.07-.04-3.09.98-3.13,3.01h.01Z"/>
  <path class="st1" d="M1657.12,2949.23c14.77-1.21,20.74-10.9,20.9-24.92.23-15.74.23-31.49.04-47.23,0-1.25.62-1.88,1.91-1.88l21.56.24c1.02.04,1.52.55,1.52,1.56-.31,16.13-.74,33.28-1.33,51.48-.94,31.05-26.48,46.8-55,41.6-25.78-4.69-37.73-22.77-35.86-54.26.74-12.38.98-25.27.7-38.67-.04-1.21.59-1.84,1.8-1.84l20.59.08c.82,0,1.25.43,1.25,1.25-.2,14.92-.24,29.45-.12,43.63.12,13.83,5.08,30.27,22.03,28.95h.01Z"/>
  <path class="st0" d="M815.89,2947.4c-13.07,4.8-27.75-2.5-32.84-16.3-5.06-13.82,1.38-28.9,14.45-33.7s27.75,2.5,32.84,16.3c5.06,13.82-1.38,28.9-14.45,33.7h0Z"/>
  <path class="st0" d="M917.94,2900.84c0-2.58,2.11-4.65,4.69-4.65l13.94.04c10.94,0,19.81,5.59,19.81,12.42v1.25c0,6.84-8.91,12.34-19.88,12.34l-13.94-.04c-2.54,0-4.61-2.07-4.61-4.65v-16.72h-.01Z"/>
  <path class="st0" d="M1410.63,2900.68c.04-2.62,2.19-4.69,4.8-4.65l13.87.23c7.42.16,13.32,5.55,13.24,12.07l-.08,2.81c-.12,6.52-6.21,11.72-13.63,11.6l-13.87-.23c-2.62-.04-4.69-2.19-4.65-4.8l.31-17.03h0Z"/>
</svg>